<svg width="89" height="83" viewBox="0 0 89 83" fill="none" xmlns="http://www.w3.org/2000/svg">
<path d="M4.9671e-07 41.6532C-0.000442056 37.6792 0.859864 33.7794 2.57915 29.9828C4.56191 25.6043 6.99729 21.3987 9.81721 17.4834C9.94049 17.3122 10.0713 17.1509 10.2097 16.9984L6.81926 12.7866C6.58337 12.4945 6.55711 12.0856 6.75384 11.7655C6.84329 11.6197 8.98405 8.15646 12.4075 5.22441C15.8425 2.28214 19.2161 0.992591 19.3576 0.939249C19.6665 0.822785 20.0149 0.886796 20.2615 1.10505L23.1896 3.69349C23.2612 3.75706 23.32 3.82907 23.3658 3.90642C25.9423 2.58308 30.7361 0.806782 38.6293 0.16623C45.619 -0.400532 51.3505 0.483617 55.665 2.79378C55.896 2.91736 56.2738 3.10006 56.6819 3.29787C57.3807 3.63659 58.1039 3.98643 58.4987 4.2278C58.8877 4.46562 59.3358 4.72433 59.8325 5.01149C63.689 7.23942 70.8665 11.3859 76.3364 20.8599C80.9717 28.8893 81.4537 32.8846 81.8792 36.4092C82.132 38.506 82.351 40.3161 83.4423 42.753C86.2177 48.9531 88.4888 50.1915 88.5115 50.2035C88.7376 50.3218 88.9103 50.5351 88.9717 50.7827C89.034 51.029 88.9935 51.2957 88.8484 51.5055C88.3989 52.155 86.0419 55.3973 83.764 55.4324C82.6598 55.4498 81.9041 55.067 81.3531 54.7874C80.7875 54.5007 80.7741 54.5109 80.6125 54.6318C80.4399 54.7616 80.3446 54.9981 80.2035 55.3733C79.8666 56.2686 79.3584 57.6212 76.7432 57.6839C74.6603 57.7341 73.4973 56.6357 72.6539 55.7418C71.7718 57.5088 69.3649 62.0398 66.2121 65.6337C64.1755 67.9554 61.7944 69.7762 60.1565 70.8955C58.9068 71.7489 58.0825 72.2633 57.5182 72.5571C58.1391 73.7022 58.4057 74.4805 58.6131 75.0855C58.8561 75.7954 58.9905 76.1866 59.5606 76.8009C61.457 78.8444 59.9665 82.1831 59.687 82.5868C59.5295 82.8148 59.2811 82.9628 59.0065 82.9931C58.4965 83.0495 58.1809 82.7584 57.6081 82.2294C56.6557 81.3497 54.6738 79.52 51.3109 78.6412C48.2974 77.854 44.7952 78.0184 41.706 78.1634C39.7553 78.2549 37.9132 78.3412 36.4569 78.1656C31.6965 77.5917 21.7899 76.3973 13.6465 69.0952C9.75223 65.6035 6.35061 61.2214 3.96596 56.6886C3.90588 56.6095 3.86092 56.5215 3.83022 56.4286C3.25208 55.3102 2.73669 54.1842 2.29118 53.0609C0.763283 49.2091 5.41364e-07 45.3978 4.9671e-07 41.6532ZM2.2805 36.7711C1.03522 43.4135 2.52707 49.8808 5.37859 55.5178C6.17481 55.9085 8.83896 57.0394 12.8672 56.9549C17.6143 56.8562 19.1137 56.0343 19.1279 56.0259C19.5485 55.7871 20.0919 55.9227 20.3403 56.3375C20.5891 56.7522 20.468 57.2847 20.0586 57.5417C19.8828 57.6519 18.1897 58.6227 12.9046 58.733C10.2827 58.7872 8.18649 58.3769 6.71066 57.932C8.99963 61.7579 11.8734 65.1158 14.8348 67.7718C16.3721 69.1503 17.9801 70.2998 19.6068 71.2613C20.403 70.9359 22.7036 70.2034 26.5663 70.6012C31.065 71.0644 33.5182 71.2346 33.5422 71.2364C34.0327 71.2698 34.3981 71.7014 34.3691 72.1841C34.3357 72.6744 33.9107 73.0443 33.4203 73.01C33.3953 73.0083 30.9168 72.8362 26.3834 72.3699C24.4019 72.1663 22.8981 72.2886 21.8624 72.4753C27.6816 75.3176 33.4211 76.0092 36.6697 76.4008C37.9777 76.5582 39.7477 76.4755 41.6214 76.3879C44.8388 76.2368 48.4848 76.0657 51.7604 76.9218C55.2626 77.8371 57.4092 79.64 58.5512 80.6811C58.7671 79.853 58.8814 78.6848 58.2543 78.01C57.4274 77.1187 57.196 76.4435 56.9281 75.6616C56.6753 74.9224 56.3602 74.0031 55.3699 72.4033C54.4557 70.9266 53.2576 70.8915 51.3777 70.9564C50.1342 70.9999 48.7246 71.0484 47.4789 70.3229C45.3003 69.0543 45.801 67.5096 46.1299 66.4881C46.3088 65.9351 46.4646 65.4541 46.348 64.9527C45.9635 64.9056 44.8855 65.2341 44.0844 65.4781C42.2432 66.0391 39.7219 66.8068 37.177 66.3912C35.7555 66.1587 34.8858 65.7328 34.4403 65.0505C33.9196 64.2543 34.1372 63.4067 34.3135 62.7261C34.544 61.8313 34.5231 61.657 34.1497 61.4001C32.7246 60.4164 31.4237 60.1417 29.6234 59.7612C28.8646 59.6007 28.0043 59.4184 27.0367 59.1597C25.5253 58.7557 24.4682 57.98 23.895 56.8536C23.0236 55.1422 23.2635 52.6773 24.6498 49.0985C25.8181 46.082 26.0869 43.3362 26.1061 41.5643C26.1061 41.555 26.1061 41.5456 26.1061 41.5363C26.1061 40.7637 25.7447 40.0663 25.1804 39.299C20.2553 34.1666 17.4763 28.5146 17.224 22.9447C17.1754 21.8686 17.2155 20.735 17.3214 19.5873C17.0068 18.336 16.0383 17.5816 15.113 17.2744C13.9612 16.8917 12.3447 17.018 11.2623 18.5218C8.51095 22.342 6.13475 26.4444 4.20095 30.7158C3.61659 32.0067 3.14927 33.2989 2.78966 34.5862C3.2187 35.1539 5.30471 37.7806 8.90349 40.2032C9.32808 40.016 11.8974 38.9221 14.173 38.7896C15.308 38.7238 16.7673 38.6856 17.2751 38.8759L16.6485 40.5401C16.6485 40.5401 16.6685 40.5512 16.7219 40.5637C16.7014 40.5588 16.1981 40.453 14.2767 40.565C13.0822 40.6344 11.7377 41.0353 10.7946 41.3709C15.4851 44.0736 17.1563 44.471 17.1732 44.4746C17.6485 44.5817 17.953 45.0533 17.8515 45.529C17.7496 46.0051 17.2872 46.3118 16.8096 46.2149C16.616 46.1758 14.7681 45.7446 9.52391 42.6903C5.96741 40.6188 3.54537 38.2109 2.2805 36.7711ZM19.5009 2.80756C18.4839 3.25964 16.0201 4.47273 13.566 6.57486C11.1132 8.67522 9.32452 11.1276 8.61198 12.1767L11.2908 15.5039C12.2272 14.2855 13.7498 12.3301 14.8237 11.0823C17.6601 7.78307 20.9255 5.40667 21.0635 5.30709C21.12 5.2662 21.1797 5.23331 21.2406 5.20708C21.3768 5.10439 21.5566 4.97504 21.7832 4.82524L19.5009 2.80756ZM19.6838 8.72278C18.6201 9.65983 17.3486 10.8743 16.174 12.2403C15.4553 13.076 14.5082 14.2655 13.6857 15.3186C14.3391 15.2803 15.0115 15.3666 15.676 15.5875C16.4593 15.8475 17.1394 16.2658 17.6882 16.8006C18.2022 13.7374 19.0282 10.7938 19.6838 8.72278ZM22.2647 6.66555C21.8188 7.88308 19.6825 13.9352 19.1208 19.5037C19.1845 19.8509 19.2129 20.2123 19.2067 20.5799C19.1756 22.2975 19.2975 23.94 19.5748 25.4572C20.5949 31.0319 23.6502 34.6645 25.4759 36.8346C25.7981 37.2169 26.0856 37.5601 26.3255 37.8655C26.4012 37.9619 26.4764 38.0597 26.5507 38.1584C28.0345 39.6933 29.7236 41.1838 31.6066 42.6107C39.0512 48.2517 42.6113 47.9009 44.3216 47.7325L44.5704 47.7085C45.0128 47.6689 45.8144 47.4208 46.6622 47.1581C48.8671 46.4754 51.8864 45.5405 54.1144 46.4238C56.1706 47.239 56.3557 49.3154 56.5346 51.3228C56.6628 52.7626 56.7959 54.2518 57.5663 55.4124C59.2179 57.8995 63.4674 56.646 65.7172 55.5138C66.6064 55.0661 67.2753 54.5145 67.865 54.0277C68.8758 53.1934 69.9212 52.331 71.4976 52.7257C72.5048 52.9778 73.1555 53.6748 73.7848 54.3482C74.5833 55.2026 75.2731 55.9409 76.6996 55.9067C78.1135 55.8725 78.2635 55.4729 78.5363 54.7483C78.7188 54.2624 78.9462 53.6579 79.5426 53.2107C80.6036 52.4141 81.5018 52.8693 82.1578 53.2014C82.6278 53.4396 83.072 53.6646 83.7356 53.6543C84.5692 53.6419 85.9204 52.3537 86.8581 51.1935C85.7989 50.2902 83.9203 48.1783 81.8164 43.4793C80.6157 40.7966 80.3709 38.7692 80.1119 36.6226C79.7068 33.2665 79.248 29.4627 74.7942 21.7481C69.5625 12.6861 62.9142 8.84547 58.9411 6.55086C58.4306 6.2557 57.9695 5.98899 57.5694 5.74495C57.2485 5.54891 56.5035 5.18796 55.9053 4.89858C55.4709 4.68788 55.0695 4.49318 54.8233 4.3616C51.1088 2.37193 46.198 1.5269 40.2097 1.8434C44.6964 3.17429 51.3674 5.89208 57.5667 11.2717C67.9594 20.2896 73.6304 37.8103 73.8667 38.5518C74.0145 39.0212 73.7563 39.52 73.2881 39.6684C72.8199 39.8173 72.3192 39.5591 72.1701 39.0914C72.1163 38.923 66.9593 22.9963 57.8484 13.9614C57.2712 15.7124 56.1145 19.7784 56.762 22.6056C57.0277 23.7684 57.2801 24.7735 57.5031 25.6599C58.055 27.854 58.4537 29.4392 58.5263 31.3048C58.5272 31.3164 58.5272 31.3288 58.5272 31.3399C58.5272 31.8151 58.1511 32.2094 57.6718 32.2276C57.1804 32.2467 56.7665 31.8649 56.7478 31.3741C56.685 29.773 56.3379 28.3279 55.8514 26.3898L54.1869 28.122C53.846 28.4763 53.283 28.4879 52.9283 28.1483C52.5736 27.8073 52.562 27.2455 52.902 26.8912L55.3441 24.3499C55.2413 23.9253 55.1344 23.4764 55.0259 23.0003C54.1437 19.1321 56.0361 13.6845 56.4234 12.635C56.4153 12.6279 56.4069 12.6208 56.3989 12.6137C53.072 9.72695 49.5712 7.63371 46.376 6.12501C47.6672 8.49519 49.3335 12.3652 48.1024 14.8283C47.2853 16.4641 45.8148 17.7087 44.3928 18.9134C42.8382 20.2296 41.37 21.4729 40.8181 23.1021C40.6605 23.5671 40.1554 23.8164 39.6894 23.6591C39.2239 23.5017 38.9738 22.9981 39.1318 22.5318C39.8421 20.4359 41.5702 18.9725 43.2415 17.5572C43.8485 17.0433 44.4405 16.5419 44.9679 16.0258C43.8116 15.6528 41.6241 15.031 39.8381 15.011C37.295 14.9825 33.694 16.2507 33.6579 16.2632C33.1946 16.4276 32.6855 16.1863 32.5208 15.724C32.3552 15.2617 32.5973 14.7527 33.0606 14.5882C33.2195 14.5313 36.9946 13.2004 39.8576 13.2324C42.3714 13.2604 45.4036 14.2802 46.2038 14.5655C46.3164 14.3922 46.4183 14.2157 46.5091 14.0348C47.6164 11.8157 44.7752 6.72022 43.6919 5.10973C43.6509 5.04883 43.6184 4.98482 43.5944 4.91859C38.5282 2.91069 34.7715 2.42261 34.7056 2.41461C34.6971 2.41327 34.6891 2.41239 34.6807 2.41105C26.6237 3.63704 23.0196 6.08856 22.2647 6.66555ZM27.8819 41.8724C27.8352 43.7936 27.5134 46.6345 26.3108 49.7399C25.1523 52.7302 24.8741 54.8532 25.483 56.0481C25.8217 56.7144 26.4808 57.17 27.4978 57.4425C28.4191 57.6888 29.2189 57.8582 29.9919 58.0213C31.8434 58.4129 33.4425 58.7508 35.1613 59.9372C36.6131 60.9387 36.2526 62.3354 36.0372 63.1693C35.9446 63.5302 35.8387 63.9387 35.9313 64.0788C35.9687 64.1361 36.2188 64.4326 37.465 64.6366C39.6 64.9856 41.7986 64.3157 43.565 63.7774C45.2042 63.2782 46.3885 62.9172 47.2729 63.4098C47.5452 63.5618 47.9031 63.8658 48.0579 64.4539C48.3272 65.4768 48.0486 66.3405 47.8243 67.0348C47.511 68.007 47.4344 68.239 48.3762 68.7876C49.1773 69.2539 50.2161 69.2183 51.3158 69.1801C53.0084 69.1214 55.0877 69.0489 56.5796 71.0235C57.751 70.3772 61.7445 68.027 64.8729 64.4619C68.1646 60.7102 70.681 55.7298 71.2693 54.5212C71.2026 54.4918 71.1345 54.4678 71.065 54.4505C70.4166 54.2882 70.0294 54.5492 68.9995 55.3986C68.3702 55.9183 67.5864 56.5646 66.5192 57.102C63.073 58.8361 58.2721 59.6918 56.0829 56.3957C55.0628 54.859 54.903 53.0645 54.7615 51.4811C54.591 49.5692 54.4464 48.469 53.4574 48.077C51.8134 47.4249 49.1408 48.2525 47.1892 48.8566C46.2078 49.1607 45.36 49.423 44.7302 49.4799L44.497 49.5021C42.5601 49.6932 38.5309 50.0897 30.5305 44.0278C29.6029 43.3242 28.7195 42.6049 27.8819 41.8724Z" fill="#DFE2EB"/>
</svg>
